<svg width="195" height="106" viewBox="0 0 195 106" fill="none" xmlns="http://www.w3.org/2000/svg">
<path d="M0 0H36.4538V5.27488H0V0ZM15.4228 4.71223H21.0311V45.7156H15.4228V4.71223Z" fill="#212AFF"/>
<path d="M46.8855 20.2555H75.7682V25.5304H46.8855V20.2555ZM75.4177 0H81.0259V45.7156H75.4177V0ZM41.768 0H47.3763V45.7156H41.768V0Z" fill="#212AFF"/>
<path d="M96.4997 25.6008V40.4408H140.157V45.7156H90.8914V0H140.157V5.27488H96.4997V20.3259H140.157V25.6008H96.4997Z" fill="#212AFF"/>
<path d="M10.165 60.2844V100.725H35.4023V106H4.55673V60.2844H10.165Z" fill="#212AFF"/>
<path d="M44.6077 60.2844H50.216V106H44.6077V60.2844Z" fill="#212AFF"/>
<path d="M93.7695 60.2844V65.5592H67.1301V80.6102H88.9323V85.8851H67.1301V106H61.5218V60.2844H93.7695Z" fill="#212AFF"/>
<path d="M105.437 85.8851V100.725H149.17V106H99.8285V60.2844H149.17V65.5592H105.437V80.6102H149.17V85.8851H105.437Z" fill="#212AFF"/>
<path d="M159.808 106V60.2844H179.928C183.106 60.2844 185.816 60.7767 188.06 61.7613C190.303 62.6991 192.009 64.1292 193.177 66.0516C194.392 67.974 195 70.3887 195 73.2957C195 75.265 194.673 76.953 194.019 78.3596C193.411 79.7663 192.546 80.9619 191.425 81.9466C190.303 82.8843 188.971 83.6111 187.429 84.1268C185.933 84.6426 184.298 84.9708 182.522 85.1115L182.311 84.7598C184.788 84.8536 186.915 85.1584 188.691 85.6741C190.467 86.1899 191.845 87.1277 192.827 88.4874C193.808 89.8471 194.299 91.8868 194.299 94.6063V106H188.691V94.6063C188.691 92.7308 188.364 91.2772 187.709 90.2457C187.102 89.1673 186.05 88.4171 184.555 87.9951C183.106 87.5262 181.096 87.2918 178.526 87.2918H165.416V106H159.808ZM165.416 82.0169H179.928C183.106 82.0169 185.466 81.2198 187.008 79.6256C188.597 77.9845 189.392 75.8746 189.392 73.2957C189.392 70.8107 188.597 68.9117 187.008 67.5989C185.466 66.2391 183.106 65.5592 179.928 65.5592H165.416V82.0169Z" fill="#212AFF"/>
</svg>
